<?xml version="1.0" encoding="us-ascii" standalone="no"?><svg xmlns="http://www.w3.org/2000/svg" xmlns:xlink="http://www.w3.org/1999/xlink" contentStyleType="text/css" height="534px" preserveAspectRatio="none" style="width:1125px;height:534px;background:#FFFFFF;" version="1.1" viewBox="0 0 1125 534" width="1125px" zoomAndPan="magnify"><defs/><g><!--class IDate--><g id="elem_IDate"><rect codeLine="4" fill="#F1F1F1" height="95.8633" id="IDate" rx="2.5" ry="2.5" style="stroke:#181818;stroke-width:0.5;" width="123" x="365" y="35"/><ellipse cx="405.65" cy="51" fill="#B4A7E5" rx="11" ry="11" style="stroke:#181818;stroke-width:1.0;"/><path d="M406.6031,47.6406 L406.6031,54.2969 L408.3219,54.2969 Q408.9313,54.2969 409.1969,54.5313 Q409.4625,54.7656 409.4625,55.1563 Q409.4625,55.5313 409.1969,55.7656 Q408.9313,56 408.3219,56 L403.1813,56 Q402.5719,56 402.3063,55.7656 Q402.0406,55.5313 402.0406,55.1406 Q402.0406,54.7656 402.3063,54.5313 Q402.5719,54.2969 403.1813,54.2969 L404.9,54.2969 L404.9,47.6406 L403.1813,47.6406 Q402.5719,47.6406 402.3063,47.4063 Q402.0406,47.1719 402.0406,46.7813 Q402.0406,46.4063 402.3063,46.1719 Q402.5719,45.9375 403.1813,45.9375 L408.3219,45.9375 Q408.9313,45.9375 409.1969,46.1719 Q409.4625,46.4063 409.4625,46.7813 Q409.4625,47.1719 409.1969,47.4063 Q408.9313,47.6406 408.3219,47.6406 L406.6031,47.6406 Z " fill="#000000"/><text fill="#000000" font-family="sans-serif" font-size="14" font-style="italic" lengthAdjust="spacing" textLength="34" x="425.35" y="56.7969">IDate</text><line style="stroke:#181818;stroke-width:0.5;" x1="366" x2="487" y1="67" y2="67"/><ellipse cx="376" cy="81.8105" fill="#84BE84" rx="3" ry="3" style="stroke:#038048;stroke-width:1.0;"/><text fill="#000000" font-family="sans-serif" font-size="14" font-style="italic" lengthAdjust="spacing" textLength="82" x="385" y="86.1074">getDay() : int</text><ellipse cx="376" cy="100.4316" fill="#84BE84" rx="3" ry="3" style="stroke:#038048;stroke-width:1.0;"/><text fill="#000000" font-family="sans-serif" font-size="14" font-style="italic" lengthAdjust="spacing" textLength="97" x="385" y="104.7285">getMonth() : int</text><ellipse cx="376" cy="119.0527" fill="#84BE84" rx="3" ry="3" style="stroke:#038048;stroke-width:1.0;"/><text fill="#000000" font-family="sans-serif" font-size="14" font-style="italic" lengthAdjust="spacing" textLength="87" x="385" y="123.3496">getYear() : int</text></g><!--class Date--><g id="elem_Date"><rect codeLine="11" fill="#F1F1F1" height="196.9688" id="Date" rx="2.5" ry="2.5" style="stroke:#181818;stroke-width:0.5;" width="253" x="7" y="275"/><ellipse cx="114.25" cy="291" fill="#ADD1B2" rx="11" ry="11" style="stroke:#181818;stroke-width:1.0;"/><path d="M117.0156,286.875 Q117.1719,286.6563 117.3594,286.5469 Q117.5469,286.4375 117.7656,286.4375 Q118.1406,286.4375 118.375,286.7031 Q118.6094,286.9531 118.6094,287.5625 L118.6094,289.0156 Q118.6094,289.625 118.375,289.8906 Q118.1406,290.1563 117.7656,290.1563 Q117.4219,290.1563 117.2188,289.9531 Q117.0156,289.7656 116.9063,289.25 Q116.8594,288.8906 116.6719,288.7031 Q116.3438,288.3281 115.7344,288.1094 Q115.125,287.8906 114.5,287.8906 Q113.7344,287.8906 113.0938,288.2188 Q112.4688,288.5469 111.9688,289.2969 Q111.4844,290.0469 111.4844,291.0781 L111.4844,292.1719 Q111.4844,293.4063 112.375,294.2344 Q113.2656,295.0469 114.8594,295.0469 Q115.7969,295.0469 116.4531,294.7969 Q116.8438,294.6406 117.2656,294.2031 Q117.5313,293.9375 117.6719,293.8594 Q117.8281,293.7813 118.0313,293.7813 Q118.3594,293.7813 118.6094,294.0469 Q118.875,294.2969 118.875,294.6406 Q118.875,294.9844 118.5313,295.3906 Q118.0313,295.9688 117.2344,296.2969 Q116.1563,296.75 114.8594,296.75 Q113.3438,296.75 112.1406,296.125 Q111.1563,295.625 110.4688,294.5625 Q109.7813,293.4844 109.7813,292.2031 L109.7813,291.0469 Q109.7813,289.7188 110.3906,288.5781 Q111.0156,287.4219 112.1094,286.8125 Q113.2031,286.1875 114.4375,286.1875 Q115.1719,286.1875 115.8125,286.3594 Q116.4688,286.5156 117.0156,286.875 Z " fill="#000000"/><text fill="#000000" font-family="sans-serif" font-size="14" lengthAdjust="spacing" textLength="30" x="134.75" y="296.7969">Date</text><line style="stroke:#181818;stroke-width:0.5;" x1="8" x2="259" y1="307" y2="307"/><rect fill="none" height="6" style="stroke:#C82930;stroke-width:1.0;" width="6" x="15" y="318.8105"/><text fill="#000000" font-family="sans-serif" font-size="14" lengthAdjust="spacing" textLength="50" x="27" y="326.1074">day : int</text><rect fill="none" height="6" style="stroke:#C82930;stroke-width:1.0;" width="6" x="15" y="337.4316"/><text fill="#000000" font-family="sans-serif" font-size="14" lengthAdjust="spacing" textLength="66" x="27" y="344.7285">month : int</text><rect fill="none" height="6" style="stroke:#C82930;stroke-width:1.0;" width="6" x="15" y="356.0527"/><text fill="#000000" font-family="sans-serif" font-size="14" lengthAdjust="spacing" textLength="55" x="27" y="363.3496">year : int</text><line style="stroke:#181818;stroke-width:0.5;" x1="8" x2="259" y1="370.8633" y2="370.8633"/><ellipse cx="18" cy="385.6738" fill="#84BE84" rx="3" ry="3" style="stroke:#038048;stroke-width:1.0;"/><text fill="#000000" font-family="sans-serif" font-size="14" lengthAdjust="spacing" textLength="227" x="27" y="389.9707">Date(day : int, month : int, year : int)</text><text fill="#000000" font-family="sans-serif" font-size="14" lengthAdjust="spacing" textLength="4" x="27" y="408.5918">&#160;</text><ellipse cx="18" cy="422.916" fill="#84BE84" rx="3" ry="3" style="stroke:#038048;stroke-width:1.0;"/><text fill="#000000" font-family="sans-serif" font-size="14" lengthAdjust="spacing" textLength="82" x="27" y="427.2129">getDay() : int</text><ellipse cx="18" cy="441.5371" fill="#84BE84" rx="3" ry="3" style="stroke:#038048;stroke-width:1.0;"/><text fill="#000000" font-family="sans-serif" font-size="14" lengthAdjust="spacing" textLength="96" x="27" y="445.834">getMonth() : int</text><ellipse cx="18" cy="460.1582" fill="#84BE84" rx="3" ry="3" style="stroke:#038048;stroke-width:1.0;"/><text fill="#000000" font-family="sans-serif" font-size="14" lengthAdjust="spacing" textLength="87" x="27" y="464.4551">getYear() : int</text></g><!--class IDateTime--><g id="elem_IDateTime"><rect codeLine="23" fill="#F1F1F1" height="151.7266" id="IDateTime" rx="2.5" ry="2.5" style="stroke:#181818;stroke-width:0.5;" width="131" x="646" y="7"/><ellipse cx="676.3" cy="23" fill="#B4A7E5" rx="11" ry="11" style="stroke:#181818;stroke-width:1.0;"/><path d="M677.2531,19.6406 L677.2531,26.2969 L678.9719,26.2969 Q679.5813,26.2969 679.8469,26.5313 Q680.1125,26.7656 680.1125,27.1563 Q680.1125,27.5313 679.8469,27.7656 Q679.5813,28 678.9719,28 L673.8313,28 Q673.2219,28 672.9563,27.7656 Q672.6906,27.5313 672.6906,27.1406 Q672.6906,26.7656 672.9563,26.5313 Q673.2219,26.2969 673.8313,26.2969 L675.55,26.2969 L675.55,19.6406 L673.8313,19.6406 Q673.2219,19.6406 672.9563,19.4063 Q672.6906,19.1719 672.6906,18.7813 Q672.6906,18.4063 672.9563,18.1719 Q673.2219,17.9375 673.8313,17.9375 L678.9719,17.9375 Q679.5813,17.9375 679.8469,18.1719 Q680.1125,18.4063 680.1125,18.7813 Q680.1125,19.1719 679.8469,19.4063 Q679.5813,19.6406 678.9719,19.6406 L677.2531,19.6406 Z " fill="#000000"/><text fill="#000000" font-family="sans-serif" font-size="14" font-style="italic" lengthAdjust="spacing" textLength="65" x="693.7" y="28.7969">IDateTime</text><line style="stroke:#181818;stroke-width:0.5;" x1="647" x2="776" y1="39" y2="39"/><ellipse cx="657" cy="53.8105" fill="#84BE84" rx="3" ry="3" style="stroke:#038048;stroke-width:1.0;"/><text fill="#000000" font-family="sans-serif" font-size="14" font-style="italic" lengthAdjust="spacing" textLength="82" x="666" y="58.1074">getDay() : int</text><ellipse cx="657" cy="72.4316" fill="#84BE84" rx="3" ry="3" style="stroke:#038048;stroke-width:1.0;"/><text fill="#000000" font-family="sans-serif" font-size="14" font-style="italic" lengthAdjust="spacing" textLength="97" x="666" y="76.7285">getMonth() : int</text><ellipse cx="657" cy="91.0527" fill="#84BE84" rx="3" ry="3" style="stroke:#038048;stroke-width:1.0;"/><text fill="#000000" font-family="sans-serif" font-size="14" font-style="italic" lengthAdjust="spacing" textLength="87" x="666" y="95.3496">getYear() : int</text><ellipse cx="657" cy="109.6738" fill="#84BE84" rx="3" ry="3" style="stroke:#038048;stroke-width:1.0;"/><text fill="#000000" font-family="sans-serif" font-size="14" font-style="italic" lengthAdjust="spacing" textLength="88" x="666" y="113.9707">getHour() : int</text><ellipse cx="657" cy="128.2949" fill="#84BE84" rx="3" ry="3" style="stroke:#038048;stroke-width:1.0;"/><text fill="#000000" font-family="sans-serif" font-size="14" font-style="italic" lengthAdjust="spacing" textLength="100" x="666" y="132.5918">getMinute() : int</text><ellipse cx="657" cy="146.916" fill="#84BE84" rx="3" ry="3" style="stroke:#038048;stroke-width:1.0;"/><text fill="#000000" font-family="sans-serif" font-size="14" font-style="italic" lengthAdjust="spacing" textLength="105" x="666" y="151.2129">getSecond() : int</text></g><!--class DateTime--><g id="elem_DateTime"><rect codeLine="33" fill="#F1F1F1" height="308.6953" id="DateTime" rx="2.5" ry="2.5" style="stroke:#181818;stroke-width:0.5;" width="253" x="865" y="219"/><ellipse cx="956.75" cy="235" fill="#ADD1B2" rx="11" ry="11" style="stroke:#181818;stroke-width:1.0;"/><path d="M959.5156,230.875 Q959.6719,230.6563 959.8594,230.5469 Q960.0469,230.4375 960.2656,230.4375 Q960.6406,230.4375 960.875,230.7031 Q961.1094,230.9531 961.1094,231.5625 L961.1094,233.0156 Q961.1094,233.625 960.875,233.8906 Q960.6406,234.1563 960.2656,234.1563 Q959.9219,234.1563 959.7188,233.9531 Q959.5156,233.7656 959.4063,233.25 Q959.3594,232.8906 959.1719,232.7031 Q958.8438,232.3281 958.2344,232.1094 Q957.625,231.8906 957,231.8906 Q956.2344,231.8906 955.5938,232.2188 Q954.9688,232.5469 954.4688,233.2969 Q953.9844,234.0469 953.9844,235.0781 L953.9844,236.1719 Q953.9844,237.4063 954.875,238.2344 Q955.7656,239.0469 957.3594,239.0469 Q958.2969,239.0469 958.9531,238.7969 Q959.3438,238.6406 959.7656,238.2031 Q960.0313,237.9375 960.1719,237.8594 Q960.3281,237.7813 960.5313,237.7813 Q960.8594,237.7813 961.1094,238.0469 Q961.375,238.2969 961.375,238.6406 Q961.375,238.9844 961.0313,239.3906 Q960.5313,239.9688 959.7344,240.2969 Q958.6563,240.75 957.3594,240.75 Q955.8438,240.75 954.6406,240.125 Q953.6563,239.625 952.9688,238.5625 Q952.2813,237.4844 952.2813,236.2031 L952.2813,235.0469 Q952.2813,233.7188 952.8906,232.5781 Q953.5156,231.4219 954.6094,230.8125 Q955.7031,230.1875 956.9375,230.1875 Q957.6719,230.1875 958.3125,230.3594 Q958.9688,230.5156 959.5156,230.875 Z " fill="#000000"/><text fill="#000000" font-family="sans-serif" font-size="14" lengthAdjust="spacing" textLength="61" x="977.25" y="240.7969">DateTime</text><line style="stroke:#181818;stroke-width:0.5;" x1="866" x2="1117" y1="251" y2="251"/><rect fill="none" height="6" style="stroke:#C82930;stroke-width:1.0;" width="6" x="873" y="262.8105"/><text fill="#000000" font-family="sans-serif" font-size="14" lengthAdjust="spacing" textLength="50" x="885" y="270.1074">day : int</text><rect fill="none" height="6" style="stroke:#C82930;stroke-width:1.0;" width="6" x="873" y="281.4316"/><text fill="#000000" font-family="sans-serif" font-size="14" lengthAdjust="spacing" textLength="66" x="885" y="288.7285">month : int</text><rect fill="none" height="6" style="stroke:#C82930;stroke-width:1.0;" width="6" x="873" y="300.0527"/><text fill="#000000" font-family="sans-serif" font-size="14" lengthAdjust="spacing" textLength="55" x="885" y="307.3496">year : int</text><rect fill="none" height="6" style="stroke:#C82930;stroke-width:1.0;" width="6" x="873" y="318.6738"/><text fill="#000000" font-family="sans-serif" font-size="14" lengthAdjust="spacing" textLength="56" x="885" y="325.9707">hour : int</text><rect fill="none" height="6" style="stroke:#C82930;stroke-width:1.0;" width="6" x="873" y="337.2949"/><text fill="#000000" font-family="sans-serif" font-size="14" lengthAdjust="spacing" textLength="69" x="885" y="344.5918">minute : int</text><rect fill="none" height="6" style="stroke:#C82930;stroke-width:1.0;" width="6" x="873" y="355.916"/><text fill="#000000" font-family="sans-serif" font-size="14" lengthAdjust="spacing" textLength="73" x="885" y="363.2129">second : int</text><line style="stroke:#181818;stroke-width:0.5;" x1="866" x2="1117" y1="370.7266" y2="370.7266"/><ellipse cx="876" cy="385.5371" fill="#84BE84" rx="3" ry="3" style="stroke:#038048;stroke-width:1.0;"/><text fill="#000000" font-family="sans-serif" font-size="14" lengthAdjust="spacing" textLength="227" x="885" y="389.834">Date(day : int, month : int, year : int)</text><text fill="#000000" font-family="sans-serif" font-size="14" lengthAdjust="spacing" textLength="4" x="885" y="408.4551">&#160;</text><ellipse cx="876" cy="422.7793" fill="#84BE84" rx="3" ry="3" style="stroke:#038048;stroke-width:1.0;"/><text fill="#000000" font-family="sans-serif" font-size="14" lengthAdjust="spacing" textLength="82" x="885" y="427.0762">getDay() : int</text><ellipse cx="876" cy="441.4004" fill="#84BE84" rx="3" ry="3" style="stroke:#038048;stroke-width:1.0;"/><text fill="#000000" font-family="sans-serif" font-size="14" lengthAdjust="spacing" textLength="96" x="885" y="445.6973">getMonth() : int</text><ellipse cx="876" cy="460.0215" fill="#84BE84" rx="3" ry="3" style="stroke:#038048;stroke-width:1.0;"/><text fill="#000000" font-family="sans-serif" font-size="14" lengthAdjust="spacing" textLength="87" x="885" y="464.3184">getYear() : int</text><ellipse cx="876" cy="478.6426" fill="#84BE84" rx="3" ry="3" style="stroke:#038048;stroke-width:1.0;"/><text fill="#000000" font-family="sans-serif" font-size="14" lengthAdjust="spacing" textLength="87" x="885" y="482.9395">getHour() : int</text><ellipse cx="876" cy="497.2637" fill="#84BE84" rx="3" ry="3" style="stroke:#038048;stroke-width:1.0;"/><text fill="#000000" font-family="sans-serif" font-size="14" lengthAdjust="spacing" textLength="99" x="885" y="501.5605">getMinute() : int</text><ellipse cx="876" cy="515.8848" fill="#84BE84" rx="3" ry="3" style="stroke:#038048;stroke-width:1.0;"/><text fill="#000000" font-family="sans-serif" font-size="14" lengthAdjust="spacing" textLength="105" x="885" y="520.1816">getSecond() : int</text></g><!--class AdapterToDate--><g id="elem_AdapterToDate"><rect codeLine="53" fill="#F1F1F1" height="122.4844" id="AdapterToDate" rx="2.5" ry="2.5" style="stroke:#181818;stroke-width:0.5;" width="263" x="295" y="312.5"/><ellipse cx="373.75" cy="328.5" fill="#ADD1B2" rx="11" ry="11" style="stroke:#181818;stroke-width:1.0;"/><path d="M376.5156,324.375 Q376.6719,324.1563 376.8594,324.0469 Q377.0469,323.9375 377.2656,323.9375 Q377.6406,323.9375 377.875,324.2031 Q378.1094,324.4531 378.1094,325.0625 L378.1094,326.5156 Q378.1094,327.125 377.875,327.3906 Q377.6406,327.6563 377.2656,327.6563 Q376.9219,327.6563 376.7188,327.4531 Q376.5156,327.2656 376.4063,326.75 Q376.3594,326.3906 376.1719,326.2031 Q375.8438,325.8281 375.2344,325.6094 Q374.625,325.3906 374,325.3906 Q373.2344,325.3906 372.5938,325.7188 Q371.9688,326.0469 371.4688,326.7969 Q370.9844,327.5469 370.9844,328.5781 L370.9844,329.6719 Q370.9844,330.9063 371.875,331.7344 Q372.7656,332.5469 374.3594,332.5469 Q375.2969,332.5469 375.9531,332.2969 Q376.3438,332.1406 376.7656,331.7031 Q377.0313,331.4375 377.1719,331.3594 Q377.3281,331.2813 377.5313,331.2813 Q377.8594,331.2813 378.1094,331.5469 Q378.375,331.7969 378.375,332.1406 Q378.375,332.4844 378.0313,332.8906 Q377.5313,333.4688 376.7344,333.7969 Q375.6563,334.25 374.3594,334.25 Q372.8438,334.25 371.6406,333.625 Q370.6563,333.125 369.9688,332.0625 Q369.2813,330.9844 369.2813,329.7031 L369.2813,328.5469 Q369.2813,327.2188 369.8906,326.0781 Q370.5156,324.9219 371.6094,324.3125 Q372.7031,323.6875 373.9375,323.6875 Q374.6719,323.6875 375.3125,323.8594 Q375.9688,324.0156 376.5156,324.375 Z " fill="#000000"/><text fill="#000000" font-family="sans-serif" font-size="14" lengthAdjust="spacing" textLength="97" x="394.25" y="334.2969">AdapterToDate</text><line style="stroke:#181818;stroke-width:0.5;" x1="296" x2="557" y1="344.5" y2="344.5"/><rect fill="none" height="6" style="stroke:#C82930;stroke-width:1.0;" width="6" x="303" y="356.3105"/><text fill="#000000" font-family="sans-serif" font-size="14" lengthAdjust="spacing" textLength="130" x="315" y="363.6074">datetime : IDateTime</text><line style="stroke:#181818;stroke-width:0.5;" x1="296" x2="557" y1="371.1211" y2="371.1211"/><ellipse cx="306" cy="385.9316" fill="#84BE84" rx="3" ry="3" style="stroke:#038048;stroke-width:1.0;"/><text fill="#000000" font-family="sans-serif" font-size="14" lengthAdjust="spacing" textLength="237" x="315" y="390.2285">AdapterToDate(datetime : IDateTime)</text><text fill="#000000" font-family="sans-serif" font-size="14" lengthAdjust="spacing" textLength="4" x="315" y="408.8496">&#160;</text><ellipse cx="306" cy="423.1738" fill="#84BE84" rx="3" ry="3" style="stroke:#038048;stroke-width:1.0;"/><text fill="#000000" font-family="sans-serif" font-size="14" lengthAdjust="spacing" textLength="102" x="315" y="427.4707">ToDate() : IDate</text></g><!--class AdapterToDateTime--><g id="elem_AdapterToDateTime"><rect codeLine="63" fill="#F1F1F1" height="122.4844" id="AdapterToDateTime" rx="2.5" ry="2.5" style="stroke:#181818;stroke-width:0.5;" width="237" x="593" y="312.5"/><ellipse cx="643.25" cy="328.5" fill="#ADD1B2" rx="11" ry="11" style="stroke:#181818;stroke-width:1.0;"/><path d="M646.0156,324.375 Q646.1719,324.1563 646.3594,324.0469 Q646.5469,323.9375 646.7656,323.9375 Q647.1406,323.9375 647.375,324.2031 Q647.6094,324.4531 647.6094,325.0625 L647.6094,326.5156 Q647.6094,327.125 647.375,327.3906 Q647.1406,327.6563 646.7656,327.6563 Q646.4219,327.6563 646.2188,327.4531 Q646.0156,327.2656 645.9063,326.75 Q645.8594,326.3906 645.6719,326.2031 Q645.3438,325.8281 644.7344,325.6094 Q644.125,325.3906 643.5,325.3906 Q642.7344,325.3906 642.0938,325.7188 Q641.4688,326.0469 640.9688,326.7969 Q640.4844,327.5469 640.4844,328.5781 L640.4844,329.6719 Q640.4844,330.9063 641.375,331.7344 Q642.2656,332.5469 643.8594,332.5469 Q644.7969,332.5469 645.4531,332.2969 Q645.8438,332.1406 646.2656,331.7031 Q646.5313,331.4375 646.6719,331.3594 Q646.8281,331.2813 647.0313,331.2813 Q647.3594,331.2813 647.6094,331.5469 Q647.875,331.7969 647.875,332.1406 Q647.875,332.4844 647.5313,332.8906 Q647.0313,333.4688 646.2344,333.7969 Q645.1563,334.25 643.8594,334.25 Q642.3438,334.25 641.1406,333.625 Q640.1563,333.125 639.4688,332.0625 Q638.7813,330.9844 638.7813,329.7031 L638.7813,328.5469 Q638.7813,327.2188 639.3906,326.0781 Q640.0156,324.9219 641.1094,324.3125 Q642.2031,323.6875 643.4375,323.6875 Q644.1719,323.6875 644.8125,323.8594 Q645.4688,324.0156 646.0156,324.375 Z " fill="#000000"/><text fill="#000000" font-family="sans-serif" font-size="14" lengthAdjust="spacing" textLength="128" x="663.75" y="334.2969">AdapterToDateTime</text><line style="stroke:#181818;stroke-width:0.5;" x1="594" x2="829" y1="344.5" y2="344.5"/><rect fill="none" height="6" style="stroke:#C82930;stroke-width:1.0;" width="6" x="601" y="356.3105"/><text fill="#000000" font-family="sans-serif" font-size="14" lengthAdjust="spacing" textLength="73" x="613" y="363.6074">date : IDate</text><line style="stroke:#181818;stroke-width:0.5;" x1="594" x2="829" y1="371.1211" y2="371.1211"/><ellipse cx="604" cy="385.9316" fill="#84BE84" rx="3" ry="3" style="stroke:#038048;stroke-width:1.0;"/><text fill="#000000" font-family="sans-serif" font-size="14" lengthAdjust="spacing" textLength="211" x="613" y="390.2285">AdapterToDateTime(date : IDate)</text><text fill="#000000" font-family="sans-serif" font-size="14" lengthAdjust="spacing" textLength="4" x="613" y="408.8496">&#160;</text><ellipse cx="604" cy="423.1738" fill="#84BE84" rx="3" ry="3" style="stroke:#038048;stroke-width:1.0;"/><text fill="#000000" font-family="sans-serif" font-size="14" lengthAdjust="spacing" textLength="164" x="613" y="427.4707">ToDateTime() : IDateTime</text></g><!--reverse link IDate to Date--><g id="link_IDate_Date"><path codeLine="10" d="M357.44,144.46 C331.9,167.37 302.98,193.96 277.5,219 C259.52,236.67 240.77,255.97 222.97,274.73 " fill="none" id="IDate-backto-Date" style="stroke:#181818;stroke-width:1.0;stroke-dasharray:7.0,7.0;"/><polygon fill="none" points="352.85,139.17,372.43,131.08,362.17,149.62,352.85,139.17" style="stroke:#181818;stroke-width:1.0;"/></g><!--reverse link IDateTime to DateTime--><g id="link_IDateTime_DateTime"><path codeLine="32" d="M791.57,162.54 C810.07,180.94 829.57,200.56 847.5,219 C853.23,224.89 859.07,230.94 864.94,237.06 " fill="none" id="IDateTime-backto-DateTime" style="stroke:#181818;stroke-width:1.0;stroke-dasharray:7.0,7.0;"/><polygon fill="none" points="786.61,167.48,777.34,148.42,796.47,157.54,786.61,167.48" style="stroke:#181818;stroke-width:1.0;"/></g><!--reverse link IDate to AdapterToDate--><g id="link_IDate_AdapterToDate"><path codeLine="51" d="M426.5,136.34 C426.5,185.93 426.5,260.37 426.5,312.38 " fill="none" id="IDate-backto-AdapterToDate" style="stroke:#181818;stroke-width:1.0;"/><polygon fill="#181818" points="426.5,131.32,422.5,140.32,426.5,136.32,430.5,140.32,426.5,131.32" style="stroke:#181818;stroke-width:1.0;"/></g><!--reverse link IDateTime to AdapterToDate--><g id="link_IDateTime_AdapterToDate"><path codeLine="52" d="M636.55,157.9 C616.63,177.68 595.19,199.09 575.5,219 C545.21,249.63 511.77,284.02 484.27,312.47 " fill="none" id="IDateTime-backto-AdapterToDate" style="stroke:#181818;stroke-width:1.0;"/><polygon fill="#181818" points="645.88,148.65,638.8035,150.0367,637.3618,157.1023,644.4383,155.7155,645.88,148.65" style="stroke:#181818;stroke-width:1.0;"/></g><!--reverse link IDate to AdapterToDateTime--><g id="link_IDate_AdapterToDateTime"><path codeLine="61" d="M491.28,139.91 C517.98,163.65 548.84,192.04 575.5,219 C604.92,248.75 635.98,283.52 660.98,312.45 " fill="none" id="IDate-backto-AdapterToDateTime" style="stroke:#181818;stroke-width:1.0;"/><polygon fill="#181818" points="481.27,131.04,483.1154,138.011,490.26,138.9886,488.4145,132.0176,481.27,131.04" style="stroke:#181818;stroke-width:1.0;"/></g><!--reverse link IDateTime to AdapterToDateTime--><g id="link_IDateTime_AdapterToDateTime"><path codeLine="62" d="M711.5,164.13 C711.5,211.07 711.5,269.37 711.5,312.36 " fill="none" id="IDateTime-backto-AdapterToDateTime" style="stroke:#181818;stroke-width:1.0;"/><polygon fill="#181818" points="711.5,159.05,707.5,168.05,711.5,164.05,715.5,168.05,711.5,159.05" style="stroke:#181818;stroke-width:1.0;"/></g><!--SRC=[lLAnReCm4Dtz5RSLcXXsbALIXdJ8r2mT7N03KWm87mDA-VVQXXW3HkhIRZw_vxlttlabHwnb4iVrdPNOYdkKLY9ExqnAcXNirZ11yYBZm4MD7GWkhhoHX1GbykQBfHpUZmmvFCWE7kmgiM4fzd3ZU6HT4482Yhd2pbM9-IRwoLbZmPwGOSBXEuf0duXH1-DO2XdhHYu5eHlRgbEDna8DqGy2IzwxtBr33JLtfTyZsgDqaSgb47-Op18yLUqsU2xALjdVWZzuMfNPAdHZm0QlAoVyqTql5q0XL_ecdj5ZIsdc_z-kTfx0V2bjHmC7Ik4jOxNQ-AKo_tAAx7M53R7DxeReaAD-aKm_HdkQ4GCVorWVyV09JEfM2andPwbUtADItp-LsZ5BXPeKk0n7dS72cS6U_000]--></g></svg>